<svg xmlns="http://www.w3.org/2000/svg" viewBox="0 0 180 180">
  <rect width="180" height="180" rx="42" fill="#2563eb"/>
  <path d="M39 105V85c0-4 1-7.5 2.7-10.8l11.8-23c2.4-4.7 7-7.4 12.1-7.4h48.8c5.2 0 10 2.3 13.4 6.1l17.1 18.4c6.8 1.8 12.7 3.9 16.3 5.1 7.9 2.6 13.4 9.8 13.4 18.1V105c0 4.8-3.8 8.6-8.6 8.6h-13.7a21.5 21.5 0 0 1-40.8 0H75.2a21.5 21.5 0 0 1-40.8 0H47.6c-4.8 0-8.6-3.8-8.6-8.6Zm26.8-43.8-8.6 17.3h68.6l-11.8-12.4a8.4 8.4 0 0 0-6.3-2.9H69.8c-1.8 0-3.3.8-4 2.2Zm-11.4 50.6a10.2 10.2 0 1 0 0-20.4 10.2 10.2 0 0 0 0 20.4Zm80.6 0a10.2 10.2 0 1 0 0-20.4 10.2 10.2 0 0 0 0 20.4Z" fill="#fff"/>
</svg>
