<svg xmlns="http://www.w3.org/2000/svg" viewBox="0 0 64 64">
  <rect width="64" height="64" rx="16" fill="#2563eb"/>
  <path d="M14 37v-7.2c0-1.4.3-2.7.9-3.9l4.2-8.2c.8-1.7 2.5-2.7 4.3-2.7h17.2c1.9 0 3.6.8 4.8 2.1l6.1 6.5c2.4.6 4.5 1.4 5.8 1.8 2.8.9 4.7 3.5 4.7 6.4V37c0 1.7-1.3 3-3 3h-4.8a7.6 7.6 0 0 1-14.4 0H27.2a7.6 7.6 0 0 1-14.4 0H17c-1.7 0-3-1.3-3-3Zm9.4-15.5-3 6.1h24.2l-4.1-4.4c-.6-.6-1.3-1-2.2-1H24.8c-.6 0-1.1.3-1.4.8Zm-4 17.9a3.6 3.6 0 1 0 0-7.2 3.6 3.6 0 0 0 0 7.2Zm28.4 0a3.6 3.6 0 1 0 0-7.2 3.6 3.6 0 0 0 0 7.2Z" fill="#fff"/>
</svg>
